<?xml version="1.0" standalone="no"?>
<!DOCTYPE svg PUBLIC "-//W3C//DTD SVG 20010904//EN"
 "http://www.w3.org/TR/2001/REC-SVG-20010904/DTD/svg10.dtd">
<svg version="1.0" xmlns="http://www.w3.org/2000/svg"
 width="500.000000pt" height="500.000000pt" viewBox="0 0 500.000000 500.000000"
 preserveAspectRatio="xMidYMid meet">

<g transform="translate(0.000000,500.000000) scale(0.100000,-0.100000)"
fill="#000000" stroke="none">
<path d="M1200 3832 c0 -5 33 -14 73 -19 41 -6 87 -19 102 -29 56 -37 55 -25
55 -769 l0 -685 140 0 139 0 3 688 c3 746 1 722 59 764 14 11 58 24 97 30 40
7 72 15 72 20 0 4 -166 8 -370 8 -203 0 -370 -4 -370 -8z"/>
<path d="M2876 3095 c-281 -54 -415 -249 -376 -547 12 -88 12 -109 -2 -160
l-15 -58 28 0 c26 0 28 3 31 46 l3 46 32 -46 33 -46 252 0 253 1 -110 57
c-136 70 -194 112 -233 166 -79 110 -83 302 -9 413 24 35 49 56 95 80 57 29
73 33 145 33 182 0 262 -94 282 -328 7 -80 8 -82 34 -82 85 0 172 62 185 132
15 81 -41 175 -137 231 -112 66 -327 93 -491 62z"/>
<path d="M2511 1801 c-39 -37 -51 -69 -51 -140 0 -140 122 -262 307 -308 94
-23 323 -22 417 1 224 54 368 205 383 399 l6 77 -122 0 -122 0 8 -37 c13 -60
7 -177 -12 -234 -46 -138 -213 -226 -378 -199 -178 29 -264 146 -283 388 l-7
82 -57 0 c-50 0 -62 -4 -89 -29z"/>
</g>
</svg>
